<?xml version="1.0" encoding="utf-8"?>
<!-- Generator: Adobe Illustrator 24.1.0, SVG Export Plug-In . SVG Version: 6.00 Build 0)  -->
<svg version="1.1" id="圖層_1" xmlns="http://www.w3.org/2000/svg" xmlns:xlink="http://www.w3.org/1999/xlink" x="0px" y="0px"
	 viewBox="0 0 20 20" style="enable-background:new 0 0 20 20;" xml:space="preserve">
<style type="text/css">
	.st0{fill:#FFFFFF;}
</style>
<path class="st0" d="M0.7,0C0.5,0,0.3,0.1,0.2,0.2S0,0.5,0,0.7S0.1,1,0.2,1.1s0.3,0.2,0.5,0.2h1.5l0.5,2.1l2,10.6
	c0,0.2,0.1,0.3,0.2,0.4c0.1,0.1,0.3,0.2,0.4,0.2h1.3c-0.7,0-1.4,0.3-1.9,0.8C4.3,15.9,4,16.6,4,17.3c0,0.7,0.3,1.4,0.8,1.9
	C5.3,19.7,6,20,6.7,20s1.4-0.3,1.9-0.8s0.8-1.2,0.8-1.9c0-0.7-0.3-1.4-0.8-1.9s-1.2-0.8-1.9-0.8H16c-0.7,0-1.4,0.3-1.9,0.8
	s-0.8,1.2-0.8,1.9c0,0.7,0.3,1.4,0.8,1.9S15.3,20,16,20c0.7,0,1.4-0.3,1.9-0.8s0.8-1.2,0.8-1.9c0-0.7-0.3-1.4-0.8-1.9
	s-1.2-0.8-1.9-0.8h1.3c0.2,0,0.3-0.1,0.4-0.2c0.1-0.1,0.2-0.2,0.2-0.4l2-10.7c0-0.1,0-0.2,0-0.3s-0.1-0.2-0.1-0.3
	c-0.1-0.1-0.1-0.1-0.2-0.2c-0.1,0-0.2-0.1-0.3-0.1H3.9L3.3,0.5c0-0.1-0.1-0.3-0.2-0.4C3,0,2.8,0,2.7,0H0.7z M5.9,13.3L4.1,4h14.4
	l-1.8,9.3H5.9z M8,17.3c0,0.4-0.1,0.7-0.4,0.9c-0.3,0.3-0.6,0.4-0.9,0.4s-0.7-0.1-1-0.3s-0.4-0.6-0.4-0.9c0-0.4,0.1-0.7,0.4-0.9
	C6,16.1,6.3,16,6.7,16s0.7,0.1,0.9,0.4C7.9,16.6,8,17,8,17.3z M17.3,17.3c0,0.4-0.1,0.7-0.4,0.9c-0.2,0.3-0.6,0.4-0.9,0.4
	s-0.7-0.1-0.9-0.4c-0.3-0.2-0.4-0.6-0.4-0.9c0-0.4,0.1-0.7,0.4-0.9c0.2-0.2,0.6-0.4,0.9-0.4s0.7,0.1,0.9,0.4
	C17.2,16.6,17.3,17,17.3,17.3z"/>
<path class="st0" d="M11.8,5.8c0-0.2-0.1-0.3-0.2-0.5c-0.1-0.1-0.3-0.2-0.5-0.2s-0.3,0.1-0.5,0.2c-0.1,0.1-0.2,0.3-0.2,0.5v2h-2
	C8.2,7.8,8.1,7.9,7.9,8C7.8,8.1,7.8,8.3,7.8,8.5S7.9,8.8,8,9c0.1,0.1,0.3,0.2,0.5,0.2h2v2c0,0.2,0.1,0.3,0.2,0.5
	c0.1,0.1,0.3,0.2,0.5,0.2s0.3-0.1,0.5-0.2c0.1-0.1,0.2-0.3,0.2-0.5v-2h2c0.2,0,0.3-0.1,0.5-0.2c0.1-0.1,0.2-0.3,0.2-0.5
	S14.5,8.2,14.4,8c-0.1-0.1-0.3-0.2-0.5-0.2h-2L11.8,5.8L11.8,5.8z"/>
</svg>
